<?xml version="1.0" encoding="utf-8"?>
<!-- Generator: Adobe Illustrator 21.1.0, SVG Export Plug-In . SVG Version: 6.00 Build 0)  -->
<svg version="1.1" xmlns="http://www.w3.org/2000/svg" xmlns:xlink="http://www.w3.org/1999/xlink" x="0px" y="0px"
	 viewBox="0 0 800 800" style="enable-background:new 0 0 800 800;" xml:space="preserve">
<style type="text/css">
	.st0{fill:#FFFFFF;}
</style>
<g id="LAURIER">
	<g id="LAURIER_DROITE">
		<path class="st0" d="M562.8,278.8c-4.5-1.6-30-12.2-32-52.8c-0.1-0.8,0.9-1.4,1.6-1c16.5,8.6,26.9,26.3,30.9,53.3
			C563.5,278.6,563.1,278.9,562.8,278.8z"/>
		<path class="st0" d="M584.8,305c-3.9-2.7-25.4-20.1-16-59.6c0.2-0.8,1.2-1.1,1.9-0.5c13.5,12.9,18.5,32.8,14.8,59.8
			C585.5,305,585.1,305.2,584.8,305z"/>
		<path class="st0" d="M581.5,459.3c-3.1-3.7-19.4-25.9-0.2-61.6c0.4-0.8,1.5-0.8,2,0c9.7,16,9.5,36.5-1,61.6
			C582.1,459.4,581.7,459.5,581.5,459.3z"/>
		<path class="st0" d="M493.3,572.7c3.6-3.6,25.7-22.7,67.3-5.2c0.9,0.4,1,1.5,0.3,2c-16.1,11.6-38.6,13.1-67.4,4
			C493.2,573.4,493.1,572.9,493.3,572.7z"/>
		<path class="st0" d="M594.6,394.3c-4.2-1.8-27.9-13.9-27.3-54.5c0-0.8,0.9-1.4,1.6-0.9c15.3,9.6,24.1,27.9,26.3,55
			C595.2,394.1,594.9,394.4,594.6,394.3z"/>
		<path class="st0" d="M598.3,406.3c-0.6-4.6-2.1-31.1,33.2-51.1c0.8-0.5,1.6,0.1,1.6,0.9c-0.5,18-11.8,34.9-34.2,50.4
			C598.7,406.8,598.4,406.6,598.3,406.3z"/>
		<path class="st0" d="M556.1,500c3.5-3,22.8-21.6,10.5-63.4c-0.3-0.9-1.3-1.2-1.8-0.5c-11.9,13.9-15.1,35-9.3,63.7
			C555.6,500,555.9,500.2,556.1,500z"/>
		<path class="st0" d="M598.4,447.8c4.3-1.7,28.6-12.9,30.6-56.5c0.1-0.9-0.8-1.6-1.6-1.1c-15.8,9.2-25.7,28.2-29.5,57.1
			C597.8,447.6,598,447.9,598.4,447.8z"/>
		<path class="st0" d="M547.1,528.7c4.8,0.1,32.9-0.8,53-42.5c0.5-0.9-0.2-1.8-1-1.7c-19.1,2.5-36.5,16.9-52.3,43.5
			C546.5,528.3,546.7,528.7,547.1,528.7z"/>
		<path class="st0" d="M516.3,553.2c4.5-1.8,29.9-14,31.6-60.1c0.1-1-0.9-1.6-1.6-1.2c-16.5,9.9-26.7,30.1-30.5,60.7
			C515.7,553,516,553.3,516.3,553.2z"/>
		<path class="st0" d="M588.4,334.6c-4.8-0.6-31.9-5.4-42.6-44.7c-0.2-0.8,0.5-1.6,1.4-1.4c18,4.9,32,19.9,41.6,45.4
			C589,334.3,588.7,334.6,588.4,334.6z"/>
		<path class="st0" d="M598.9,335.1c-3-3.5-18.8-24.6-0.2-65.6c0.4-0.8,1.4-1,1.9-0.3c9.4,15.5,9.2,37.3-1,65.7
			C599.5,335.2,599.1,335.3,598.9,335.1z"/>
		<path class="st0" d="M600.5,367.8c-1.5-4-8.6-27.6,21.2-58.1c0.7-0.7,1.6-0.5,1.8,0.3c3.3,16.6-4.1,35.9-22.2,57.9
			C600.9,368.2,600.5,368.2,600.5,367.8z"/>
		<path class="st0" d="M581.4,477.7c1.1-4.1,9.4-27.3,51.5-34.4c0.9-0.1,1.6,0.6,1.2,1.3c-7.2,15.4-24.5,26.6-52.1,33.5
			C581.6,478.3,581.3,478,581.4,477.7z"/>
		<path class="st0" d="M531.9,555.1c2.3-4.4,17.2-29.2,64-26.3c1,0.1,1.6,1,1,1.8c-11.7,16-33.1,24.5-64.5,25.2
			C532,555.7,531.7,555.4,531.9,555.1z"/>
		<path class="st0" d="M432.1,602.7c-1.8-0.3,58.4-41.6,94.1-9.4c0,0.1,0.8,0.9-0.2,1.4c-17.1,7.6-36,5.8-55.8-1.4
			C459.1,590.3,444.6,597.9,432.1,602.7z"/>
	</g>
	<g id="LAURIER_GAUCHE">
		<path class="st0" d="M238,278.8c4.5-1.6,30-12.2,32-52.8c0.1-0.8-0.9-1.4-1.6-1c-16.5,8.6-26.9,26.3-30.9,53.3
			C237.4,278.6,237.7,278.9,238,278.8z"/>
		<path class="st0" d="M216.1,305c3.9-2.7,25.4-20.1,16-59.6c-0.2-0.8-1.2-1.1-1.9-0.5c-13.5,12.9-18.5,32.8-14.8,59.8
			C215.4,305,215.8,305.2,216.1,305z"/>
		<path class="st0" d="M219.4,459.3c3.1-3.7,19.4-25.9,0.2-61.6c-0.4-0.8-1.5-0.8-2,0c-9.7,16-9.5,36.5,1,61.6
			C218.7,459.4,219.2,459.5,219.4,459.3z"/>
		<path class="st0" d="M307.5,572.7c-3.6-3.6-25.7-22.7-67.3-5.2c-0.9,0.4-1,1.5-0.3,2c16.1,11.6,38.6,13.1,67.4,4
			C307.6,573.4,307.8,572.9,307.5,572.7z"/>
		<path class="st0" d="M206.3,394.3c4.2-1.8,27.9-13.9,27.3-54.5c0-0.8-0.9-1.4-1.6-0.9c-15.3,9.6-24.1,27.9-26.3,55
			C205.7,394.1,206,394.4,206.3,394.3z"/>
		<path class="st0" d="M202.6,406.3c0.6-4.6,2.1-31.1-33.2-51.1c-0.8-0.5-1.6,0.1-1.6,0.9c0.5,18,11.8,34.9,34.2,50.4
			C202.1,406.8,202.5,406.6,202.6,406.3z"/>
		<path class="st0" d="M244.7,500c-3.5-3-22.8-21.6-10.5-63.4c0.3-0.9,1.3-1.2,1.8-0.5c11.9,13.9,15.1,35,9.3,63.7
			C245.3,500,245,500.2,244.7,500z"/>
		<path class="st0" d="M202.5,447.8c-4.3-1.7-28.6-12.9-30.6-56.5c-0.1-0.9,0.8-1.6,1.6-1.1c15.8,9.2,25.7,28.2,29.5,57.1
			C203.1,447.6,202.8,447.9,202.5,447.8z"/>
		<path class="st0" d="M253.8,528.7c-4.8,0.1-32.9-0.8-53-42.5c-0.5-0.9,0.2-1.8,1-1.7c19.1,2.5,36.5,16.9,52.3,43.5
			C254.3,528.3,254.2,528.7,253.8,528.7z"/>
		<path class="st0" d="M284.6,553.2c-4.5-1.8-29.9-14-31.6-60.1c-0.1-1,0.9-1.6,1.6-1.2c16.5,9.9,26.7,30.1,30.5,60.7
			C285.2,553,284.9,553.3,284.6,553.2z"/>
		<path class="st0" d="M212.5,334.6c4.8-0.6,31.9-5.4,42.6-44.7c0.2-0.8-0.5-1.6-1.4-1.4c-18,4.9-32,19.9-41.6,45.4
			C211.9,334.3,212.2,334.6,212.5,334.6z"/>
		<path class="st0" d="M201.9,335.1c3-3.5,18.8-24.6,0.2-65.6c-0.4-0.8-1.4-1-1.9-0.3c-9.4,15.5-9.2,37.3,1,65.7
			C201.3,335.2,201.7,335.3,201.9,335.1z"/>
		<path class="st0" d="M200.4,367.8c1.5-4,8.6-27.6-21.2-58.1c-0.7-0.7-1.6-0.5-1.8,0.3c-3.3,16.6,4.1,35.9,22.2,57.9
			C199.9,368.2,200.3,368.2,200.4,367.8z"/>
		<path class="st0" d="M219.5,477.7c-1.1-4.1-9.4-27.3-51.5-34.4c-0.9-0.1-1.6,0.6-1.2,1.3c7.2,15.4,24.5,26.6,52.1,33.5
			C219.3,478.3,219.6,478,219.5,477.7z"/>
		<path class="st0" d="M269,555.1c-2.3-4.4-17.2-29.2-64-26.3c-1,0.1-1.6,1-1,1.8c11.7,16,33.1,24.5,64.5,25.2
			C268.9,555.7,269.2,555.4,269,555.1z"/>
		<path class="st0" d="M368.8,602.7c1.8-0.3-58.4-41.6-94.1-9.4c0,0.1-0.8,0.9,0.2,1.4c17.1,7.6,36,5.8,55.8-1.4
			C341.8,590.3,356.2,597.9,368.8,602.7z"/>
	</g>
</g>
<g id="LOGO_1_">
	<g id="LOGO_R6">
		<g id="LOGO_R6_1_">
			<path id="LOGO" class="st0" d="M472.5,375.1c0,0.1,1.8-22.6-27.4-29.1c-29.1-6.5-50.5,2.7-50.5,2.7s-4.8,1.8-7.5,6.8l0.3-49
				c0,0,0.4-7.1,11.1-6.5c10.7,0.6,10.8,5.9,10.8,5.9v29.5h62.8v-42.6c0,0,3.6-40.9-71.8-46.4c-20.3-1.5-72,10.4-72,46.4v205.1
				c0,0-4.3,49.9,72.4,49.6c76.7-0.3,72-50.8,72-50.8L472.5,375.1z M424.1,491.7c0,0-3.1-3.7-5.8-7c11.4-3.2,15.7-10.3,15.7-10.3
				c-3.5,2.4-6.9,4-10,5.1c-4.3,1.8-8.5,3-12.6,3.7c-8.3,1.6-16,1.1-22.4-0.1c-5-1-9.2-2.4-12.7-3.7c-2-0.8-4.2-1.8-6.3-2.9
				c-0.3-0.2-0.5-0.3-0.8-0.5c-0.2-0.1-0.3-0.2-0.3-0.3c-1.6-0.8-2.4-1.5-2.4-1.5s4.2,6.9,15.2,10.2c-2.6,3.3-5.8,7.2-5.8,7.2
				c-19.2-0.6-26.4-13.2-26.4-13.2c0-27.9,12.5-50.5,12.5-50.5c12.5-9.3,24.4-9.1,24.4-9.1l0.8,1c-15.6,4.5-22.8,11.4-22.8,11.4
				s1.9-1,5.1-2.5c9.3-4.1,16.7-5.2,19.7-5.5c0.5-0.1,1-0.2,1.5-0.2c5.3-0.7,11.2-0.8,17.5-0.2c8.2,1,17.1,3.4,26.1,8.3
				c0,0-6.9-6.5-21.6-11l1.2-1.4c0,0,11.9-0.3,24.4,9.1c0,0,12.5,22.6,12.5,50.5C450.6,478.5,443.2,491.1,424.1,491.7z"/>
			<path id="EYES_1_" class="st0" d="M383.8,451.2c-5,0-8.8,4.3-8.8,9.6c0,5.3,4,9.6,8.8,9.6c5,0,8.8-4.3,8.8-9.6
				C392.7,455.6,388.7,451.2,383.8,451.2z"/>
			<path id="EYES" class="st0" d="M415.5,451.2c-5,0-8.8,4.3-8.8,9.6c0,5.3,4,9.6,8.8,9.6c5,0,8.8-4.3,8.8-9.6
				C424.3,455.6,420.4,451.2,415.5,451.2z"/>
		</g>
	</g>
</g>
<g id="BANDES">
	<g id="BANDES_DROITES">
		<path class="st0" d="M543.4,311.5l-26.1-7.6c0,0,30.2,206.7-116.4,297C400.9,601,567.5,542.3,543.4,311.5z"/>
		<path class="st0" d="M511.4,302.2l-25.8-4.8c0,0,26.4,69.7-3.1,210.5C504.6,465.1,520.3,409.4,511.4,302.2z"/>
		<path class="st0" d="M467.2,535.5c0,0-4.8,6.2-14.6,9.4c-12,19.5-27.9,36.7-47.2,51.8C428.9,581.8,450.1,562.6,467.2,535.5z"/>
	</g>
	<g id="BANDES_GAUCHES">
		<path class="st0" d="M257.5,311.5l26.1-7.6c0,0-30.2,206.7,116.4,297C400,601,233.4,542.3,257.5,311.5z"/>
		<path class="st0" d="M289.4,302.2l25.8-4.8c0,0-26.4,69.7,3.1,210.5C296.3,465.1,280.5,409.4,289.4,302.2z"/>
		<path class="st0" d="M333.7,535.5c0,0,4.8,6.2,14.6,9.4c12,19.5,27.9,36.7,47.2,51.8C372,581.8,350.8,562.6,333.7,535.5z"/>
	</g>
	<g>
		<g>
			<path class="st0" d="M297,239.7c-3.6,2.3-5.4,3.6-8.9,6.1c-1.8-9.8-2.7-14.7-4.5-24.4c1.3-1,2-1.5,3.4-2.4
				c1.5,8.3,2.2,12.5,3.7,20.8c2.3-1.6,3.4-2.3,5.7-3.8C296.6,237.4,296.7,238.2,297,239.7z"/>
			<path class="st0" d="M302.7,229.9c0,2.5,0,3.7,0.1,6.2c-1.4,0.8-2.1,1.3-3.5,2.1c-0.1-10.8-0.1-16.3-0.1-27.1
				c1.9-1.1,2.9-1.7,4.9-2.8c3.1,9.1,4.6,13.7,7.6,22.9c-1.5,0.8-2.2,1.2-3.6,2c-0.7-2.1-1-3.2-1.7-5.3
				C304.8,228.6,304.1,229,302.7,229.9z M302.4,215.4c0.1,4.2,0.1,6.3,0.2,10.6c1-0.6,1.5-0.9,2.6-1.5
				C304.1,220.8,303.6,219,302.4,215.4z"/>
			<path class="st0" d="M327.3,217.1c0.2,1.8,0,3.4-0.8,5.1c-0.5,1.1-1.2,2-2.2,2.8c-0.5,0.4-1.2,0.8-1.9,1.2
				c-1.4,0.6-2.6,0.8-3.6,0.5c-0.8-0.2-1.5-0.8-2.1-1.6c-0.6-0.8-1-1.9-1.3-3.2c1.3-0.8,2-1.1,3.3-1.9c0.3,1.4,0.8,2.3,1.5,2.7
				c0.5,0.3,1,0.3,1.6,0c0.8-0.4,1.3-1.1,1.7-2.1c0.2-0.5,0.2-1.1,0.2-1.8c-0.1-1-0.7-2-1.7-2.5c-0.7-0.4-2-1-3.6-1.7
				c-1.3-0.6-2.4-1.4-3-2.1c-0.7-0.8-1.1-1.9-1.3-3.1c-0.3-2.3,0.2-4.4,1.5-6.3c0.8-1.1,1.9-2,3.3-2.6c1.3-0.6,2.5-0.8,3.5-0.6
				c0.8,0.2,1.5,0.6,2,1.2c0.5,0.7,0.9,1.5,1.2,2.6c-1.4,0.9-2.1,1.3-3.4,2.2c-0.2-1-0.6-1.7-1.1-2c-0.4-0.3-0.9-0.3-1.5,0
				c-0.7,0.3-1.1,0.8-1.4,1.6c-0.2,0.6-0.3,1.3-0.2,2c0.1,1.2,0.8,2.1,1.9,2.9c0.4,0.3,1,0.6,1.8,0.9c0.9,0.4,1.6,0.6,1.9,0.8
				c1,0.6,1.8,1.2,2.4,1.9c0.3,0.3,0.5,0.7,0.7,1C327,215.7,327.2,216.4,327.3,217.1z"/>
			<path class="st0" d="M334.2,215c-0.1,2.5-0.2,3.7-0.3,6.2c-1.5,0.6-2.3,0.9-3.8,1.4c0.5-10.8,0.8-16.2,1.4-27
				c2.1-0.8,3.1-1.1,5.2-1.9c2.7,9.6,4,14.5,6.5,24.2c-1.5,0.5-2.3,0.7-3.8,1.3c-0.6-2.2-0.9-3.3-1.4-5.6
				C336.4,214.1,335.7,214.4,334.2,215z M334.7,200.5c-0.1,4.2-0.2,6.3-0.3,10.5c1.1-0.4,1.6-0.6,2.7-1
				C336.1,206.2,335.6,204.3,334.7,200.5z"/>
			<path class="st0" d="M356.4,214.2c-4.1,1-6.1,1.5-10.1,2.7c-0.9-10.2-1.3-15.3-2.2-25.6c1.5-0.5,2.3-0.7,3.8-1.1
				c0.7,8.7,1,13.1,1.7,21.8c2.6-0.7,3.9-1,6.4-1.7C356.3,211.9,356.3,212.7,356.4,214.2z"/>
			<path class="st0" d="M369.2,211.6c-4.1,0.7-6.1,1.1-10.2,2c-0.7-10.3-1-15.4-1.7-25.7c1.6-0.4,2.3-0.5,3.9-0.8
				c0.5,8.8,0.8,13.1,1.3,21.9c2.6-0.5,3.9-0.8,6.5-1.2C369.1,209.3,369.1,210.1,369.2,211.6z"/>
			<path class="st0" d="M371.8,211.2c-0.5-10.3-0.7-15.5-1.2-25.8c4.5-0.7,6.7-1,11.2-1.4c0,1.6,0.1,2.4,0.1,3.9
				c-2.9,0.3-4.3,0.5-7.2,0.8c0.1,2.8,0.2,4.2,0.3,7.1c2.1-0.3,3.1-0.4,5.2-0.6c0.1,1.6,0.1,2.4,0.1,3.9c-2.1,0.2-3.1,0.4-5.2,0.6
				c0.1,2.8,0.2,4.2,0.3,7.1c2.8-0.4,4.2-0.5,7-0.8c0,1.6,0.1,2.4,0.1,3.9C378.2,210.3,376.1,210.5,371.8,211.2z"/>
			<path class="st0" d="M399.7,202.7c0,1.7-0.6,3.2-1.7,4.4c-1.2,1.2-2.6,1.9-4.2,1.9c-2.4,0.1-3.6,0.2-6,0.3
				c-0.2-10.4-0.3-15.5-0.5-25.9c2.5-0.2,3.7-0.2,6.2-0.3c1.7-0.1,3.2,0.5,4.4,1.7c1.2,1.2,1.8,2.6,1.8,4.3
				C399.7,194.6,399.7,197.3,399.7,202.7z M391.5,205.3c0.9,0,1.4-0.1,2.3-0.1c0.6,0,1.1-0.3,1.5-0.7c0.4-0.5,0.6-1,0.6-1.6
				c0-5.4-0.1-8.1-0.1-13.6c0-0.6-0.2-1.1-0.7-1.6c-0.4-0.4-1-0.6-1.6-0.6c-0.9,0-1.4,0.1-2.4,0.1
				C391.3,194.5,391.4,198.1,391.5,205.3z"/>
			<path class="st0" d="M403.1,208.9c0-10.4,0-15.6,0.1-25.9c4.5,0,6.8,0.1,11.3,0.4c0,1.6,0,2.4-0.1,3.9c-2.9-0.2-4.4-0.3-7.3-0.3
				c0,2.8,0,4.2-0.1,7.1c2.1,0.1,3.1,0.1,5.2,0.2c0,1.6,0,2.4-0.1,3.9c-2.1-0.1-3.1-0.2-5.2-0.2c0,2.8,0,4.2-0.1,7.1
				c2.8,0.1,4.2,0.1,7.1,0.3c0,1.6,0,2.4-0.1,3.9C409.6,209,407.4,208.9,403.1,208.9z"/>
			<path class="st0" d="M419.1,209.7c0.3-10.4,0.4-15.5,0.7-25.9c2.4,0.2,3.5,0.3,5.9,0.6c1.6,0.2,2.9,0.8,4.1,1.8
				c1,0.8,1.7,2,2.1,3.5c0.2,0.8,0.3,1.7,0.2,2.8c-0.1,1.7-0.6,3-1.6,4c-0.4,0.4-0.9,0.7-1.4,0.8c0.8,0.5,1.5,1.2,2.1,2.3
				c0.4,0.7,0.6,1.6,0.8,2.7c0.1,0.5,0.1,1.2,0.1,1.8c-0.1,1.6-0.4,3-1.1,4c-0.5,0.8-1.2,1.4-2.1,1.8c-1,0.5-1.9,0.6-2.9,0.5
				C423.3,210.1,421.9,210,419.1,209.7z M423.7,194.8c0.6,0.1,1,0.1,1.6,0.2c1.2,0.1,2-0.3,2.5-1.5c0.2-0.4,0.3-1,0.3-1.6
				c0-1.1-0.2-1.9-0.7-2.5c-0.5-0.6-1.1-0.9-1.9-1c-0.7-0.1-1-0.1-1.6-0.2C423.8,190.8,423.8,192.2,423.7,194.8z M423.3,206.3
				c0.6,0.1,1,0.1,1.6,0.2c1.3,0.2,2.2-0.4,2.8-1.7c0.2-0.4,0.3-1,0.3-1.6c0.1-1.4-0.2-2.5-0.7-3.3c-0.5-0.7-1.2-1.1-2.1-1.2
				c-0.6-0.1-1-0.1-1.6-0.2C423.5,201.6,423.4,203.2,423.3,206.3z"/>
			<path class="st0" d="M442.6,187.2c2.2,0.5,3.7,1.4,4.6,2.8c0.8,1.2,1.2,2.8,1,4.7c-0.1,1.5-0.2,2.2-0.3,3.7
				c-0.1,1.8-0.9,3.2-2.3,4.1c0.8,4.7,1.2,7.1,2,11.9c-1.6-0.4-2.4-0.6-4-0.9c-0.7-4.1-1-6.1-1.7-10.2c-0.1,0-0.2,0-0.3-0.1
				c-0.9-0.2-1.3-0.3-2.2-0.4c-0.2,3.9-0.3,5.8-0.6,9.7c-1.5-0.3-2.3-0.4-3.8-0.7c0.5-10.3,0.8-15.5,1.3-25.8
				C438.9,186.5,440.1,186.7,442.6,187.2z M444.5,193.9c0.1-1.5-0.6-2.4-2.1-2.7c-0.9-0.2-1.4-0.3-2.3-0.5c-0.2,3.3-0.3,4.9-0.5,8.2
				c0.9,0.2,1.4,0.3,2.3,0.5c0.6,0.1,1.1,0,1.6-0.3c0.5-0.3,0.7-0.8,0.7-1.4C444.4,196.2,444.4,195.4,444.5,193.9z"/>
			<path class="st0" d="M454.5,216.3c-1.5-0.4-2.2-0.6-3.7-1c0.8-10.3,1.2-15.4,2-25.6c1.5,0.4,2.3,0.6,3.8,1.1
				C455.8,200.9,455.4,206,454.5,216.3z"/>
			<path class="st0" d="M457.8,217.3c0.9-10.2,1.3-15.4,2.2-25.6c4.4,1.3,6.5,2,10.8,3.6c-0.2,1.5-0.2,2.3-0.4,3.9
				c-2.8-1-4.2-1.5-6.9-2.4c-0.3,2.8-0.4,4.2-0.7,7c2,0.7,3,1,5,1.7c-0.2,1.5-0.2,2.3-0.4,3.9c-2-0.7-3-1.1-5-1.7
				c-0.3,2.8-0.4,4.2-0.7,7c2.7,0.9,4.1,1.4,6.8,2.3c-0.2,1.5-0.2,2.3-0.4,3.9C464.1,219.2,462,218.5,457.8,217.3z"/>
			<path class="st0" d="M474.3,223.1c-1.4-0.6-2.2-0.9-3.6-1.4c1.1-10.2,1.7-15.2,2.8-25.4c4.3,1.6,6.4,2.5,10.6,4.4
				c-0.2,1.5-0.3,2.3-0.5,3.8c-2.7-1.2-4.1-1.8-6.8-2.9c-0.3,2.8-0.5,4.1-0.8,6.9c2,0.8,3,1.2,4.9,2.1c-0.2,1.5-0.3,2.3-0.5,3.8
				c-1.9-0.9-2.9-1.3-4.9-2.1C475,216.6,474.8,218.8,474.3,223.1z"/>
			<path class="st0" d="M486.8,228.7c-1.4-0.7-2.1-1-3.5-1.7c1.3-10.1,2-15.1,3.3-25.2c1.5,0.7,2.2,1,3.6,1.8
				C488.8,213.6,488.2,218.7,486.8,228.7z"/>
			<path class="st0" d="M497.5,207.3c0.9,7.8,1.3,11.6,2.1,19.4c1-6.7,1.6-10,2.6-16.7c1.4,0.8,2.1,1.2,3.5,2.1
				c-1.6,9.9-2.4,14.9-4,24.8c-1.4-0.9-2.2-1.3-3.6-2.2c-0.9-7.5-1.4-11.2-2.4-18.6c-0.9,6.4-1.4,9.6-2.3,16
				c-1.4-0.7-2.1-1.1-3.5-1.8c1.4-10,2.1-15,3.5-25.1C495.1,206,495.9,206.5,497.5,207.3z"/>
			<path class="st0" d="M509.9,242.5c-1.4-1-2.6-2.4-3.4-4.2c-0.8-1.8-1.1-3.5-0.9-5.1c0.9-5.4,1.3-8.1,2.2-13.5
				c0.3-1.6,1-2.7,2.3-3.2c1.3-0.5,2.7-0.2,4.2,0.8c1.5,1,2.7,2.5,3.5,4.4c0.8,1.9,1.1,3.6,0.8,5.2c-0.2,1.1-0.3,1.7-0.5,2.8
				c-1.4-1-2.1-1.5-3.5-2.5c0.2-1.2,0.3-1.7,0.5-2.9c0.1-0.6,0-1.2-0.3-1.9c-0.3-0.7-0.7-1.2-1.3-1.6c-0.5-0.4-1-0.5-1.5-0.3
				c-0.5,0.2-0.7,0.5-0.8,1.1c-0.9,5.4-1.4,8.1-2.3,13.5c-0.1,0.6,0,1.2,0.3,1.9c0.3,0.7,0.7,1.2,1.2,1.5c0.5,0.4,1,0.5,1.5,0.3
				c0.4-0.2,0.7-0.5,0.8-1.1c0.3-1.9,0.5-2.9,0.9-4.8c-0.7-0.5-1.1-0.8-1.9-1.3c0.3-1.5,0.4-2.2,0.7-3.7c2.1,1.5,3.2,2.2,5.3,3.7
				c-0.6,3.4-0.9,5.1-1.6,8.5c-0.3,1.6-1.1,2.6-2.3,3C512.6,243.7,511.3,243.5,509.9,242.5z"/>
		</g>
	</g>
</g>
</svg>
